<?xml version="1.0" standalone="no"?><!DOCTYPE svg PUBLIC "-//W3C//DTD SVG 1.1//EN" "http://www.w3.org/Graphics/SVG/1.1/DTD/svg11.dtd"><svg t="1708589549438" class="icon" viewBox="0 0 1024 1024" version="1.1" xmlns="http://www.w3.org/2000/svg" p-id="15189" xmlns:xlink="http://www.w3.org/1999/xlink" width="200" height="200"><path d="M900.821333 249.045333A467.114667 467.114667 0 0 1 981.333333 512c0 97.450667-29.696 187.946667-80.512 262.954667A1538.346667 1538.346667 0 0 0 512 725.333333c-134.314667 0-264.618667 17.237333-388.821333 49.621334A467.157333 467.157333 0 0 1 42.666667 512c0-97.450667 29.696-187.946667 80.512-262.954667C247.338667 281.429333 377.685333 298.666667 512 298.666667c134.314667 0 264.618667-17.237333 388.821333-49.621334zM552.533333 341.333333c-51.157333 0-91.648 16.768-119.68 52.224C408.32 424.106667 396.8 463.786667 396.8 510.72c0 47.658667 11.050667 86.954667 34.730667 116.693333 27.306667 34.773333 68.693333 51.84 121.856 51.84 35.029333 0 65.621333-10.069333 91.136-30.464 24.96-19.882667 41.216-46.592 49.408-79.829333l2.218666-10.154667 2.389334-12.672h-69.76l-2.090667 7.978667c-5.546667 21.418667-14.762667 36.608-26.88 46.293333-11.477333 8.533333-26.965333 13.568-46.848 13.568-30.890667 0-52.053333-9.813333-65.28-26.965333-12.586667-16.64-19.626667-41.685333-19.626667-76.288 0-30.293333 5.674667-53.333333 16.298667-70.101333l3.712-5.376c13.952-19.029333 34.304-28.629333 63.616-28.629334 17.152 0 30.72 2.944 41.386667 8.661334l5.077333 3.114666c10.069333 6.741333 17.578667 16.725333 22.4 31.274667l1.877333 6.528 2.048 8.021333h69.333334l-1.834667-12.288c-5.077333-32.981333-19.456-60.245333-43.946667-80.042666C622.677333 351.232 590.293333 341.333333 552.533333 341.333333z m240.426667 0h-70.826667v337.92H938.666667v-64h-145.706667V341.333333z m-511.573333 5.973334H209.962667L85.333333 673.28h76.288l27.733334-76.373333h112.64l27.733333 76.373333h76.288l-124.586667-325.973333z m-35.541334 93.610666l33.536 93.696H212.053333l33.834667-93.696z" fill="#1296db" p-id="15190"></path><path d="M554.666667 811.264c97.792 2.858667 193.152 15.36 285.141333 36.608A467.797333 467.797333 0 0 1 554.666667 979.413333v-168.106666z m-85.333334 0v168.149333a467.797333 467.797333 0 0 1-285.141333-131.541333 1450.368 1450.368 0 0 1 252.629333-35.285333l32.512-1.28z m0-766.72v168.192a1452.373333 1452.373333 0 0 1-285.141333-36.608 467.882667 467.882667 0 0 1 270.122667-129.962667L469.333333 44.586667z m85.333334 0a467.797333 467.797333 0 0 1 285.141333 131.584 1450.496 1450.496 0 0 1-252.629333 35.285333l-32.512 1.28v-168.106666z" fill="#1296db" fill-opacity=".8" p-id="15191"></path></svg>