<?xml version="1.0" standalone="no"?><!DOCTYPE svg PUBLIC "-//W3C//DTD SVG 1.1//EN" "http://www.w3.org/Graphics/SVG/1.1/DTD/svg11.dtd"><svg t="1708589239186" class="icon" viewBox="0 0 1024 1024" version="1.1" xmlns="http://www.w3.org/2000/svg" p-id="5788" xmlns:xlink="http://www.w3.org/1999/xlink" width="200" height="200"><path d="M512.02048 30.73024c-265.81504 0-481.28512 215.46496-481.28512 481.2544 0 265.79456 215.47008 481.26976 481.28512 481.26976 265.82016 0 481.30048-215.4752 481.30048-481.26976C993.32096 246.1952 777.84064 30.73024 512.02048 30.73024zM314.14272 460.43136c-42.72128 0-77.34272-34.62656-77.34272-77.33248 0-42.71616 34.62144-77.3632 77.34272-77.3632s77.3376 34.64704 77.3376 77.3632C391.48032 425.8048 356.864 460.43136 314.14272 460.43136zM512.02048 787.712c-75.6736 0-137.0368-77.08672-137.0368-172.11904 0-0.15872 0.01024-0.31232 0.01024-0.47104l274.06848 0c0 0.15872 0.01024 0.31232 0.01024 0.47104C649.06752 710.62528 587.6992 787.712 512.02048 787.712zM787.46112 461.66528l-169.41056-52.66944c-5.64224-1.76128-10.35264-5.10464-13.81888-9.38496-0.01536-0.01536-0.03072-0.03072-0.04608-0.0512-0.23552-0.29184-0.44032-0.60416-0.6656-0.90112-0.94208-1.24416-1.81248-2.55488-2.56-3.97312-7.40864-14.12096-1.98144-31.5904 12.19072-39.00928l162.9696-85.68832 26.90048 51.15392-101.4016 53.2992 103.00928 32.03072L787.46112 461.66528z" fill="#1296db" p-id="5789"></path></svg>