<?xml version="1.0" standalone="no"?><!DOCTYPE svg PUBLIC "-//W3C//DTD SVG 1.1//EN" "http://www.w3.org/Graphics/SVG/1.1/DTD/svg11.dtd"><svg t="1690639943478" class="icon" viewBox="0 0 1024 1024" version="1.1" xmlns="http://www.w3.org/2000/svg" p-id="4216" xmlns:xlink="http://www.w3.org/1999/xlink" width="200" height="200"><path d="M513.022283 310.881446m-67.039859 0a67.039859 67.039859 0 1 0 134.079718 0 67.039859 67.039859 0 1 0-134.079718 0Z" p-id="4217" fill="#1296db"></path><path d="M468.329385 467.306078h89.385796v312.850288h-89.385796z" p-id="4218" fill="#1296db"></path><path d="M513.022283 65.069995c-246.831688 0-446.928982 200.097294-446.928982 446.928982s200.097294 446.928982 446.928982 446.928982 446.928982-200.097294 446.928982-446.928982-200.096271-446.928982-446.928982-446.928982z m0 849.165066c-222.148519 0-402.236084-180.087565-402.236084-402.236084S290.873764 109.762893 513.022283 109.762893s402.236084 180.087565 402.236084 402.236084S735.171826 914.235061 513.022283 914.235061z" p-id="4219" fill="#1296db"></path></svg>