<?xml version="1.0" standalone="no"?><!DOCTYPE svg PUBLIC "-//W3C//DTD SVG 1.1//EN" "http://www.w3.org/Graphics/SVG/1.1/DTD/svg11.dtd"><svg t="1687769623747" class="icon" viewBox="0 0 1024 1024" version="1.1" xmlns="http://www.w3.org/2000/svg" p-id="5069" xmlns:xlink="http://www.w3.org/1999/xlink" width="200" height="200"><path d="M0 0h1024v1024H0z" fill="#1296db" fill-opacity="0" p-id="5070"></path><path d="M384 554.666667a85.333333 85.333333 0 0 1 85.333333 85.333333v106.666667a192 192 0 0 1-186.346666 191.914666L277.333333 938.666667c-106.048 0-192-85.952-192-192s85.952-192 192-192h106.666667z m362.666667 0a192 192 0 0 1 192 192 192 192 0 0 1-186.346667 191.914666L746.666667 938.666667a192 192 0 0 1-191.914667-186.346667L554.666667 746.666667v-106.666667a85.333333 85.333333 0 0 1 81.066666-85.226667L640 554.666667h106.666667zM277.333333 85.333333a192 192 0 0 1 191.914667 186.346667L469.333333 277.333333v106.666667a85.333333 85.333333 0 0 1-81.066666 85.226667L384 469.333333h-106.666667a192 192 0 0 1-192-192 192 192 0 0 1 186.346667-191.914666L277.333333 85.333333z m469.333334 0c106.048 0 192 85.952 192 192s-85.952 192-192 192h-106.666667a85.333333 85.333333 0 0 1-85.333333-85.333333v-106.666667a192 192 0 0 1 186.346666-191.914666L746.666667 85.333333z" p-id="5071" fill="#1296db"></path></svg>