<?xml version="1.0" standalone="no"?><!DOCTYPE svg PUBLIC "-//W3C//DTD SVG 1.1//EN" "http://www.w3.org/Graphics/SVG/1.1/DTD/svg11.dtd"><svg t="1689143451555" class="icon" viewBox="0 0 1024 1024" version="1.1" xmlns="http://www.w3.org/2000/svg" p-id="4265" xmlns:xlink="http://www.w3.org/1999/xlink" width="200" height="200"><path d="M1007.82678 1023.82403H15.99725a15.99725 15.99725 0 1 1 0-31.994501h991.82953a15.99725 15.99725 0 1 1 0 31.994501z" fill="#1296db" p-id="4266"></path><path d="M255.956008 1023.82403a15.99725 15.99725 0 0 1-15.997251-15.99725V15.99725a15.99725 15.99725 0 1 1 31.994501 0v991.82953a15.99725 15.99725 0 0 1-15.99725 15.99725z" fill="#1296db" p-id="4267"></path><path d="M706.726531 1023.82403a16.029245 16.029245 0 0 1-15.549327-19.868585c73.347393-294.317414 3.055475-563.999063-197.885988-759.38948-69.620034-67.796348-151.701926-123.850713-244.054054-166.579369a15.99725 15.99725 0 1 1 13.437691-29.019012c95.631563 44.232398 180.736936 102.334411 252.932527 172.674321 209.452 203.644999 282.831388 484.236772 206.620487 790.056209a15.99725 15.99725 0 0 1-15.517333 12.125916z" fill="#1296db" p-id="4268"></path><path d="M671.88452 255.956008H207.964256a15.99725 15.99725 0 1 1 0-31.994501h463.920264a15.99725 15.99725 0 1 1 0 31.994501z" fill="#1296db" p-id="4269"></path><path d="M530.020903 1023.82403a16.013248 16.013248 0 0 1-15.853276-18.284857c51.287185-356.610708-44.584337-687.1299-269.953601-930.688038a15.99725 15.99725 0 1 1 23.483963-21.724266c232.040118 250.772898 330.82314 590.618487 278.144194 956.987518-1.151802 7.966631-7.998625 13.709644-15.837278 13.709643z" fill="#1296db" p-id="4270"></path><path d="M655.887269 927.840527H255.956008a15.99725 15.99725 0 1 1 0-31.994501h399.931261a15.99725 15.99725 0 1 1 0 31.994501zM655.887269 831.857025H255.956008a15.99725 15.99725 0 1 1 0-31.994501h399.931261a15.99725 15.99725 0 1 1 0 31.994501zM655.887269 735.873522H255.956008a15.99725 15.99725 0 1 1 0-31.994501h399.931261a15.99725 15.99725 0 1 1 0 31.994501zM639.890019 639.890019H255.956008a15.99725 15.99725 0 1 1 0-31.994501h383.934011a15.99725 15.99725 0 1 1 0 31.994501zM607.895518 543.906516H255.956008a15.99725 15.99725 0 1 1 0-31.994501h351.93951a15.99725 15.99725 0 1 1 0 31.994501zM575.901017 447.923013H255.956008a15.99725 15.99725 0 1 1 0-31.994501h319.945009a15.99725 15.99725 0 1 1 0 31.994501zM511.912015 351.93951H255.956008a15.99725 15.99725 0 1 1 0-31.994501h255.956007a15.99725 15.99725 0 1 1 0 31.994501zM770.747528 1023.82403a16.029245 16.029245 0 0 1-15.549328-19.868585c95.391605-382.734218-42.64867-620.549343-175.233881-752.670635a15.99725 15.99725 0 1 1 22.588117-22.652106c195.694365 195.006483 260.94715 473.086688 183.712425 783.06541a15.99725 15.99725 0 0 1-15.517333 12.125916z" fill="#1296db" p-id="4271"></path></svg>