<?xml version="1.0" standalone="no"?><!DOCTYPE svg PUBLIC "-//W3C//DTD SVG 1.1//EN" "http://www.w3.org/Graphics/SVG/1.1/DTD/svg11.dtd"><svg t="1708590465376" class="icon" viewBox="0 0 1024 1024" version="1.1" xmlns="http://www.w3.org/2000/svg" p-id="21487" xmlns:xlink="http://www.w3.org/1999/xlink" width="200" height="200"><path d="M512 0a512 512 0 1 1 0 1024A512 512 0 0 1 512 0z m0 625.777778a341.447111 341.447111 0 0 0-316.472889 213.162666A453.006222 453.006222 0 0 0 512 967.111111a453.632 453.632 0 0 0 316.472889-128.056889A341.447111 341.447111 0 0 0 512 625.777778zM512 56.888889a455.111111 455.111111 0 0 0-358.172444 735.971555 398.279111 398.279111 0 0 1 716.344888-0.056888A455.111111 455.111111 0 0 0 512 56.888889z m0 56.888889a227.555556 227.555556 0 1 1 0 455.111111 227.555556 227.555556 0 0 1 0-455.111111z m0 56.888889a170.666667 170.666667 0 1 0 0 341.333333 170.666667 170.666667 0 0 0 0-341.333333z" p-id="21488" fill="#1296db"></path></svg>