<?xml version="1.0" standalone="no"?><!DOCTYPE svg PUBLIC "-//W3C//DTD SVG 1.1//EN" "http://www.w3.org/Graphics/SVG/1.1/DTD/svg11.dtd"><svg t="1687771797391" class="icon" viewBox="0 0 1057 1024" version="1.1" xmlns="http://www.w3.org/2000/svg" p-id="949" xmlns:xlink="http://www.w3.org/1999/xlink" width="206.4453125" height="200"><path d="M316.283871 123.870968C180.851613 189.935484 129.651613 218.83871 123.870968 232.877419c-10.735484 25.6-90.83871 381.522581-90.83871 404.645162 0 16.516129 184.980645 257.651613 254.348387 331.148387l21.470968 22.296774 222.967742-1.651613 223.793548-2.477419 130.47742-161.032258c71.845161-88.36129 132.129032-169.290323 134.606451-179.2 4.954839-18.993548-72.670968-370.787097-90.838709-411.251613-9.909677-21.470968-36.335484-37.16129-196.541936-113.961291C621.006452 68.541935 538.425806 33.032258 523.56129 33.858065 510.348387 33.858065 417.032258 74.322581 316.283871 123.870968zM371.612903 326.193548V355.096774H280.774194v-57.806451h90.838709v28.903225z m400.516129 0v24.774194l-170.941935 2.477419L429.419355 355.096774v-57.806451l171.767742 1.651612 170.941935 2.47742v24.774193zM495.483871 450.064516V478.967742H404.645161v-57.806452h90.83871v28.903226z m276.645161 0v24.774194l-109.006451 2.477419-109.832258 2.477419v-59.458064l109.832258 2.477419 109.006451 2.47742v24.774193zM495.483871 573.935484V602.83871H404.645161v-57.806452h90.83871v28.903226z m276.645161 0v24.774193l-109.006451 2.47742-109.832258 2.477419v-59.458064l109.832258 2.477419 109.006451 2.477419v24.774194zM371.612903 697.806452V726.709677H280.774194v-57.806451h90.838709v28.903226z m400.516129 0v24.774193l-170.941935 2.47742L429.419355 726.709677v-57.806451l171.767742 1.651613 170.941935 2.477419v24.774194z" fill="#1296db" p-id="950"></path></svg>