<?xml version="1.0" standalone="no"?><!DOCTYPE svg PUBLIC "-//W3C//DTD SVG 1.1//EN" "http://www.w3.org/Graphics/SVG/1.1/DTD/svg11.dtd"><svg t="1706018324459" class="icon" viewBox="0 0 1024 1024" version="1.1" xmlns="http://www.w3.org/2000/svg" p-id="4823" xmlns:xlink="http://www.w3.org/1999/xlink" width="200" height="200"><path d="M551.657257 870.361648a363.823347 363.823347 0 0 0 244.2887-140.207591l-160.010634-91.697812a182.474551 182.474551 0 0 1-84.278066 48.356268v183.549135z m289.932923-218.294009a357.171162 357.171162 0 0 0 28.399713-140.105249 358.706282 358.706282 0 0 0-28.399713-140.10525L681.579546 463.606122a179.916018 179.916018 0 0 1 0 96.661365l160.010634 91.748982z m-45.541882-358.399258a364.130371 364.130371 0 0 0-244.391041-140.105249v183.497963a181.911674 181.911674 0 0 1 84.278066 48.356268l160.010634-91.748982h0.102341zM460.675834 153.563132a363.823347 363.823347 0 0 0-244.2887 140.20759l160.061805 91.697812a182.218698 182.218698 0 0 1 84.278066-48.356268V153.563132zM170.794082 371.85714a357.938722 357.938722 0 0 0-28.348543 140.10525c0 49.686705 10.080619 97.07073 28.348543 140.105249L330.855886 560.318657a179.097288 179.097288 0 0 1 0-96.661364L170.794082 371.85714z m45.541881 358.348087a364.181542 364.181542 0 0 0 244.339871 140.156421v-183.549135a182.167527 182.167527 0 0 1-84.226895-48.356268L216.335963 730.205227z m244.339871 230.984331a455.060623 455.060623 0 0 1-323.603213-185.49362l-15.044172 8.59667a45.695394 45.695394 0 0 1-61.865321-16.681633 44.927834 44.927834 0 0 1 16.37461-61.507126l14.993001-8.596669A447.078001 447.078001 0 0 1 51.464117 511.96239c0-66.163655 14.327783-128.950047 40.015451-185.595961L76.537738 317.769759a45.030175 45.030175 0 0 1-16.630463-61.711808 45.746564 45.746564 0 0 1 62.121174-16.579292l15.044172 8.699011a455.060623 455.060623 0 0 1 323.603213-185.54479V45.541882c0-24.920108 20.36592-45.132517 45.541882-45.132517 25.07362 0 45.43954 20.212408 45.439541 45.132517v17.193339A455.111793 455.111793 0 0 1 875.311641 248.228841l14.993001-8.647841a45.695394 45.695394 0 0 1 61.916491 16.681633 44.927834 44.927834 0 0 1-16.42578 61.507126l-14.993001 8.545499a446.361612 446.361612 0 0 1 40.066622 185.595961 447.231513 447.231513 0 0 1-39.964281 185.595961l14.89066 8.494328a44.979005 44.979005 0 0 1 16.681633 61.711808 45.695394 45.695394 0 0 1-62.172344 16.528122l-14.993001-8.647841a455.111793 455.111793 0 0 1-323.654384 185.493619v17.19334a45.030175 45.030175 0 0 1-22.770941 39.094379 45.797735 45.797735 0 0 1-45.490711 0 45.081346 45.081346 0 0 1-22.719771-39.094379v-17.090998z m47.230514-358.910965a91.083763 91.083763 0 0 0 80.337926-45.797735c16.374609-28.655566 15.709391-63.860976-1.688632-91.902494a91.083763 91.083763 0 0 0-81.975387-42.778666 90.572057 90.572057 0 0 0-86.324892 91.851323c0.81873 48.714462 40.527158 87.962354 89.650985 88.627572z" fill="#1296db" p-id="4824"></path></svg>