<?xml version="1.0" standalone="no"?><!DOCTYPE svg PUBLIC "-//W3C//DTD SVG 1.1//EN" "http://www.w3.org/Graphics/SVG/1.1/DTD/svg11.dtd"><svg t="1689143357056" class="icon" viewBox="0 0 1057 1024" version="1.1" xmlns="http://www.w3.org/2000/svg" p-id="834" xmlns:xlink="http://www.w3.org/1999/xlink" width="206.4453125" height="200"><path d="M316.283871 123.870968C180.851613 189.935484 129.651613 218.83871 123.870968 232.877419c-10.735484 25.6-90.83871 381.522581-90.83871 404.645162 0 16.516129 184.980645 257.651613 254.348387 331.148387l21.470968 22.296774 222.967742-1.651613 223.793548-2.477419 130.47742-161.032258c71.845161-88.36129 132.129032-169.290323 134.606451-179.2 4.954839-18.993548-72.670968-370.787097-90.838709-411.251613-9.909677-21.470968-36.335484-37.16129-196.541936-113.961291C621.006452 68.541935 538.425806 33.032258 523.56129 33.858065 510.348387 33.858065 417.032258 74.322581 316.283871 123.870968z m291.509677 118.090322c23.122581 11.56129 57.806452 38.812903 75.974194 60.283871C715.148387 336.929032 751.483871 412.903226 751.483871 441.806452c0 9.083871 9.909677 12.387097 37.16129 12.387096 20.645161 0 37.16129 2.477419 37.161291 4.954839 0 10.735484-185.806452 200.670968-191.587097 194.890323-4.129032-4.954839-19.819355-42.116129-78.451613-189.935484-3.303226-7.432258 8.258065-9.909677 42.941935-9.909678 44.593548 0 46.245161-0.825806 41.290323-18.993548-36.335484-122.219355-196.541935-151.948387-274.167742-50.374194-29.729032 38.812903-36.335484 116.43871-13.212903 159.380646 20.645161 40.464516 66.890323 74.322581 110.658064 81.754838l36.335484 5.780645 2.47742 52.025807 2.477419 51.2h-33.032258c-52.025806 0-119.741935-29.729032-161.858065-71.019355-109.006452-104.877419-109.006452-273.341935 0-378.219355 53.677419-52.851613 107.354839-71.845161 189.935484-68.541935 51.2 2.477419 75.148387 7.432258 108.180645 24.774193z m-269.212903 594.580645v61.109678l-30.554839 0.825806c-37.987097 1.651613-52.025806-9.909677-52.025806-43.767742 0-32.206452 17.341935-48.722581 45.419355-43.767742 17.341935 3.303226 20.645161 0.825806 20.645161-14.864516 0-10.735484 4.129032-19.819355 8.258065-19.819354 4.954839 0 8.258065 25.6 8.258064 60.28387z m256 1.651613c0 35.509677-3.303226 61.935484-8.258064 61.935484s-8.258065-26.425806-8.258065-61.935484 3.303226-61.935484 8.258065-61.935483 8.258065 26.425806 8.258064 61.935483z m-149.470968-10.735483c9.909677 25.6 4.954839 31.380645-28.903225 31.380645-19.819355 0-28.077419 3.303226-25.6 9.909677 1.651613 5.780645 14.864516 10.735484 28.903225 10.735484 15.690323 0 26.425806 4.129032 26.425807 9.909677 0 14.03871-59.458065 14.03871-72.670968 0.825807-5.780645-5.780645-9.909677-21.470968-9.909677-35.509678 0-33.032258 13.212903-45.419355 47.070967-45.419354 21.470968 0 29.729032 4.129032 34.683871 18.167742z m101.574194 2.477419c14.864516 33.858065 0 65.23871-33.032258 68.541935-19.819355 1.651613-26.425806 6.606452-26.425807 18.993549 0 8.258065-5.780645 15.690323-12.387096 15.690322-9.909677 0-12.387097-12.387097-12.387097-61.935484V809.290323h37.16129c32.206452 0 38.812903 3.303226 47.070968 20.645161z m145.341935-10.735484c5.780645 5.780645 9.909677 21.470968 9.909678 35.509677 0 31.380645-13.212903 45.419355-41.290323 45.419355s-41.290323-14.03871-41.290322-45.419355 13.212903-45.419355 41.290322-45.419354c11.56129 0 25.6 4.129032 31.380645 9.909677z m53.67742 20.645161l12.387097 31.380645 13.212903-31.380645c12.387097-27.251613 29.729032-41.290323 29.729032-23.12258 0 9.909677-34.683871 94.141935-43.767742 105.703225-9.083871 12.387097-38.812903 14.03871-38.812903 2.47742 0-4.954839 4.954839-8.258065 11.56129-8.258065 19.819355 0 19.819355-18.993548 0-64.412903-14.03871-32.206452-15.690323-42.941935-8.258064-42.941935 6.606452 0 17.341935 14.03871 23.948387 30.554838z" fill="#1296db" p-id="835"></path><path d="M276.645161 841.496774c-6.606452 21.470968 3.303226 42.116129 20.645162 42.116129 8.258065 0 17.341935-5.780645 19.819354-13.212903 8.258065-20.645161-2.477419-44.593548-19.819354-44.593548-8.258065 0-17.341935 6.606452-20.645162 15.690322zM388.129032 834.064516c0 4.129032 9.909677 8.258065 21.470968 8.258065 11.56129 0 18.993548-3.303226 15.690323-8.258065-2.477419-4.954839-12.387097-8.258065-21.470968-8.258064-8.258065 0-15.690323 3.303226-15.690323 8.258064zM490.529032 837.367742c-8.258065 21.470968 0 42.116129 17.341936 42.116129 13.212903 0 16.516129-5.780645 16.516129-24.774194 0-27.251613-24.774194-40.464516-33.858065-17.341935zM640 841.496774c-6.606452 21.470968 3.303226 42.116129 20.645161 42.116129 20.645161 0 27.251613-13.212903 21.470968-37.987097-6.606452-23.948387-34.683871-27.251613-42.116129-4.129032z" fill="#1296db" p-id="836"></path></svg>