<?xml version="1.0" standalone="no"?><!DOCTYPE svg PUBLIC "-//W3C//DTD SVG 1.1//EN" "http://www.w3.org/Graphics/SVG/1.1/DTD/svg11.dtd"><svg t="1706165664434" class="icon" viewBox="0 0 1057 1024" version="1.1" xmlns="http://www.w3.org/2000/svg" p-id="1001" xmlns:xlink="http://www.w3.org/1999/xlink" width="206.4453125" height="200"><path d="M316.283871 123.870968C180.851613 189.935484 129.651613 218.83871 123.870968 232.877419c-10.735484 25.6-90.83871 381.522581-90.83871 404.645162 0 16.516129 184.980645 257.651613 254.348387 331.148387l21.470968 22.296774 222.967742-1.651613 223.793548-2.477419 130.47742-161.032258c71.845161-88.36129 132.129032-169.290323 134.606451-179.2 4.954839-18.993548-72.670968-370.787097-90.838709-411.251613-9.909677-21.470968-36.335484-37.16129-196.541936-113.961291C621.006452 68.541935 538.425806 33.032258 523.56129 33.858065 510.348387 33.858065 417.032258 74.322581 316.283871 123.870968zM512 239.483871c0 14.03871-5.780645 16.516129-33.032258 16.516129s-33.032258 2.477419-33.032258 16.516129c0 10.735484-5.780645 16.516129-16.516129 16.516129-14.03871 0-16.516129-5.780645-16.516129-33.032258v-33.032258h49.548387c43.767742 0 49.548387 1.651613 49.548387 16.516129z m181.677419 0c0 14.864516-5.780645 16.516129-61.935484 16.516129s-61.935484-1.651613-61.935483-16.516129 5.780645-16.516129 61.935483-16.516129 61.935484 1.651613 61.935484 16.516129z m130.47742 30.554839c2.477419 39.63871 0.825806 43.767742-14.03871 43.767742-14.03871 0-17.341935-4.954839-17.341935-28.903226 0-25.6-2.477419-28.903226-20.645162-28.903226-15.690323 0-20.645161-4.129032-20.645161-17.341935 0-14.864516 4.129032-16.516129 35.509677-14.03871l34.683871 2.477419 2.47742 42.941936zM404.645161 322.064516c0 13.212903-5.780645 16.516129-24.774193 16.516129-20.645161 0-24.774194 3.303226-24.774194 20.645161 0 14.864516-4.129032 20.645161-16.516129 20.645162-14.03871 0-16.516129-5.780645-16.516129-37.161291V305.548387h41.290323c35.509677 0 41.290323 2.477419 41.290322 16.516129z m189.935484 0c0 14.864516-5.780645 16.516129-66.064516 16.516129s-66.064516-1.651613-66.064516-16.516129 5.780645-16.516129 66.064516-16.516129 66.064516 1.651613 66.064516 16.516129z m140.387097 20.645161c0 31.380645-2.477419 37.16129-16.516129 37.161291-12.387097 0-16.516129-5.780645-16.516129-20.645162 0-17.341935-4.129032-20.645161-24.774194-20.645161-18.993548 0-24.774194-3.303226-24.774193-16.516129 0-14.03871 5.780645-16.516129 41.290322-16.516129h41.290323v37.16129z m90.83871 90.83871c0 56.154839-1.651613 61.935484-16.516129 61.935484s-16.516129-5.780645-16.516129-61.935484 1.651613-61.935484 16.516129-61.935484 16.516129 5.780645 16.516129 61.935484zM644.129032 478.967742v90.83871h20.645162c16.516129 0 20.645161 4.129032 20.645161 20.645161s-4.129032 20.645161-19.819355 20.645161c-18.993548 0-20.645161 4.129032-23.122581 38.812903l-2.477419 39.63871h-404.645161l-2.47742-151.122581L231.225806 388.129032h412.903226v90.83871z m90.83871-16.516129c0 16.516129 4.129032 24.774194 12.387097 24.774193 7.432258 0 12.387097 7.432258 12.387096 20.645162s-4.954839 20.645161-12.387096 20.645161-12.387097 7.432258-12.387097 20.645161c0 14.864516-4.129032 20.645161-16.516129 20.645162-14.864516 0-16.516129-5.780645-16.516129-66.064517s1.651613-66.064516 16.516129-66.064516c13.212903 0 16.516129 5.780645 16.516129 24.774194zM644.129032 730.83871V751.483871H231.225806v-41.290323h412.903226v20.645162z m-123.870967 105.703225v61.109678l-30.554839 0.825806c-37.987097 1.651613-52.025806-9.909677-52.025807-43.767742 0-32.206452 17.341935-48.722581 45.419355-43.767742 17.341935 3.303226 20.645161 0.825806 20.645161-14.864516 0-10.735484 4.129032-19.819355 8.258065-19.819354 4.954839 0 8.258065 25.6 8.258065 60.28387zM611.096774 817.548387c0 4.129032-10.735484 8.258065-24.774193 8.258065-31.380645 0-32.206452 13.212903-0.825807 20.645161 27.251613 5.780645 38.812903 25.6 24.774194 42.116129-12.387097 14.864516-65.23871 15.690323-65.23871 0.825806 0-7.432258 8.258065-9.909677 24.774194-7.432258 14.03871 1.651613 24.774194 0 24.774193-4.954838 0-4.129032-10.735484-12.387097-24.774193-17.341936-23.122581-7.432258-33.032258-30.554839-18.993549-44.593548 8.258065-9.083871 60.283871-6.606452 60.283871 2.477419z" fill="#1296db" p-id="1002"></path><path d="M458.322581 841.496774c-6.606452 21.470968 3.303226 42.116129 20.645161 42.116129 8.258065 0 17.341935-5.780645 19.819355-13.212903 8.258065-20.645161-2.477419-44.593548-19.819355-44.593548-8.258065 0-17.341935 6.606452-20.645161 15.690322z" fill="#1296db" p-id="1003"></path></svg>