<?xml version="1.0" standalone="no"?><!DOCTYPE svg PUBLIC "-//W3C//DTD SVG 1.1//EN" "http://www.w3.org/Graphics/SVG/1.1/DTD/svg11.dtd"><svg t="1689646864301" class="icon" viewBox="0 0 1057 1024" version="1.1" xmlns="http://www.w3.org/2000/svg" p-id="868" xmlns:xlink="http://www.w3.org/1999/xlink" width="206.4453125" height="200"><path d="M316.283871 123.870968C180.851613 189.935484 129.651613 218.83871 123.870968 232.877419c-10.735484 25.6-90.83871 381.522581-90.83871 404.645162 0 16.516129 184.980645 257.651613 254.348387 331.148387l21.470968 22.296774 222.967742-1.651613 223.793548-2.477419 130.47742-161.032258c71.845161-88.36129 132.129032-169.290323 134.606451-179.2 4.954839-18.993548-72.670968-370.787097-90.838709-411.251613-9.909677-21.470968-36.335484-37.16129-196.541936-113.961291C621.006452 68.541935 538.425806 33.032258 523.56129 33.858065 510.348387 33.858065 417.032258 74.322581 316.283871 123.870968z m333.625806 156.077419l114.787097 56.980645 26.425807 113.961291c14.03871 63.587097 27.251613 121.393548 28.077419 128.825806 1.651613 8.258065-33.032258 59.458065-79.277419 118.090323L658.167742 801.032258H392.258065l-81.754839-103.225806-80.929032-104.051613 26.425806-123.870968c23.948387-110.658065 29.729032-125.522581 49.548387-139.56129 26.425806-18.167742 205.625806-105.703226 219.664516-106.529033 5.780645-0.825806 61.109677 24.774194 124.696774 56.154839z" fill="#1296db" p-id="869"></path><path d="M517.780645 286.554839c-7.432258 1.651613-12.387097 7.432258-9.909677 11.56129 6.606452 9.909677 51.2 9.909677 57.806451-0.825806 2.477419-4.954839 1.651613-8.258065-3.303225-8.258065-4.129032 0-12.387097-1.651613-18.993549-3.303226-5.780645-1.651613-17.341935-1.651613-25.6 0.825807zM487.225806 328.670968c0 17.341935 6.606452 28.903226 20.645162 37.987097L528.516129 379.870968v-33.032258c0-18.167742-3.303226-33.032258-7.432258-33.032258s-13.212903-2.477419-20.645161-4.954839c-9.909677-4.129032-13.212903 0.825806-13.212904 19.819355zM559.896774 311.329032c-10.735484 2.477419-14.864516 12.387097-14.864516 36.335484 0 31.380645 0.825806 31.380645 20.645161 22.296774 15.690323-7.432258 20.645161-15.690323 20.645162-37.16129 0-14.864516-2.477419-26.425806-5.780646-26.425806-4.129032 0.825806-13.212903 2.477419-20.645161 4.954838zM443.458065 402.167742c-7.432258 1.651613-12.387097 7.432258-9.909678 11.56129 6.606452 9.909677 51.2 9.909677 57.806452-0.825806 2.477419-4.954839 1.651613-8.258065-3.303226-8.258065-4.129032 0-12.387097-1.651613-18.993548-3.303226-5.780645-1.651613-17.341935-1.651613-25.6 0.825807zM569.806452 403.819355c-18.167742 4.954839-18.993548 6.606452-5.780646 11.56129 22.296774 8.258065 53.677419 7.432258 59.458065-2.477419 2.477419-4.954839 1.651613-8.258065-3.303226-8.258065-4.129032 0-12.387097-1.651613-18.993548-3.303226-5.780645-1.651613-19.819355-0.825806-31.380645 2.47742zM412.903226 447.587097c0 22.296774 4.129032 30.554839 20.645161 37.987097 19.819355 9.083871 20.645161 9.083871 20.645161-23.122581 0-18.167742-3.303226-33.032258-7.432258-33.032258s-13.212903-2.477419-20.645161-4.954839c-10.735484-4.129032-13.212903 0.825806-13.212903 23.122581zM485.574194 426.941935c-10.735484 2.477419-14.864516 12.387097-14.864517 36.335484 0 31.380645 0.825806 31.380645 20.645162 22.296775 15.690323-7.432258 20.645161-15.690323 20.645161-37.161291 0-14.864516-2.477419-26.425806-5.780645-26.425806-4.129032 0.825806-13.212903 2.477419-20.645161 4.954838zM545.032258 450.064516c0 19.819355 4.954839 28.077419 20.645161 35.509678 19.819355 9.083871 20.645161 9.083871 20.645162-22.296775 0-27.251613-2.477419-32.206452-20.645162-35.509677-18.167742-4.129032-20.645161-1.651613-20.645161 22.296774zM613.574194 429.419355c-14.864516 5.780645-18.993548 14.03871-18.993549 37.16129 0 33.032258 1.651613 33.858065 28.903226 15.690323 14.03871-9.083871 20.645161-21.470968 20.645161-37.161291 0-25.6-2.477419-27.251613-30.554838-15.690322zM426.116129 524.387097c-2.477419 6.606452-12.387097 12.387097-21.470968 12.387097-18.167742 0-21.470968 16.516129-6.606451 31.380645 7.432258 7.432258 7.432258 12.387097 0 19.819355-15.690323 15.690323-11.56129 23.122581 10.735484 23.12258 11.56129 0 23.122581 5.780645 25.6 12.387097 7.432258 18.167742 25.6 14.864516 30.554838-4.129032 2.477419-9.909677 11.56129-16.516129 21.470968-16.516129 18.993548 0 22.296774-8.258065 8.258065-22.296775-5.780645-5.780645-7.432258-14.864516-5.780646-20.645161 8.258065-20.645161 5.780645-27.251613-10.735484-24.774193-8.258065 1.651613-18.167742-3.303226-20.645161-9.909678-6.606452-16.516129-24.774194-17.341935-31.380645-0.825806z m39.63871 25.6c25.6 24.774194 6.606452 56.980645-29.729033 51.2-24.774194-3.303226-31.380645-37.987097-9.909677-53.67742 18.993548-14.03871 23.948387-13.212903 39.63871 2.47742zM564.025806 549.16129c-8.258065 18.993548-7.432258 20.645161 14.03871 20.645162 34.683871 0 61.109677 25.6 61.109678 59.458064 0 26.425806 0.825806 28.077419 18.993548 19.819355 23.948387-11.56129 23.948387-21.470968 1.651613-27.251613-14.864516-4.129032-16.516129-9.083871-13.212903-33.032258 4.954839-28.077419 4.129032-28.077419-18.993549-23.122581-21.470968 4.954839-25.6 2.477419-33.032258-15.690322-9.909677-27.251613-18.167742-27.251613-30.554839-0.825807z" fill="#1296db" p-id="870"></path><path d="M508.696774 583.019355c4.954839 24.774194 3.303226 29.729032-12.387097 33.858064-19.819355 4.954839-23.948387 27.251613-4.954838 27.251613 17.341935 0 24.774194 22.296774 12.387096 37.161291-14.864516 18.167742-2.477419 29.729032 20.645162 18.993548l19.819355-9.083871-15.690323-20.645161c-20.645161-26.425806-20.645161-52.025806 0-78.451613 16.516129-21.470968 16.516129-21.470968 0.825806-29.729032-24.774194-13.212903-26.425806-11.56129-20.645161 20.645161zM616.051613 681.290323c-9.083871 6.606452-26.425806 12.387097-38.812903 12.387096-18.993548 0-21.470968 2.477419-17.341936 20.645162 4.129032 21.470968 26.425806 28.903226 26.425807 9.083871 0-5.780645 5.780645-15.690323 12.387096-21.470968 9.909677-8.258065 14.864516-8.258065 24.774194 0 18.167742 14.864516 32.206452 0 18.993548-18.993549-9.909677-11.56129-12.387097-11.56129-26.425806-1.651612z" fill="#1296db" p-id="871"></path></svg>