<?xml version="1.0" standalone="no"?><!DOCTYPE svg PUBLIC "-//W3C//DTD SVG 1.1//EN" "http://www.w3.org/Graphics/SVG/1.1/DTD/svg11.dtd"><svg t="1687771971649" class="icon" viewBox="0 0 1024 1024" version="1.1" xmlns="http://www.w3.org/2000/svg" p-id="2736" xmlns:xlink="http://www.w3.org/1999/xlink" width="200" height="200"><path d="M481.897 501.7a17.243 17.243 0 0 1 16.917 0l155.18 87.359a17.242 17.242 0 0 1 8.784 15.024V783.4c0 6.227-3.357 11.97-8.783 15.025l-155.18 87.359a17.243 17.243 0 0 1-16.918 0l-155.18-87.36a17.242 17.242 0 0 1-8.784-15.024V604.083c0-6.227 3.358-11.97 8.784-15.024z m8.459 34.809l-137.938 77.653v159.156l137.938 77.653 137.938-77.653V614.162l-137.938-77.653z m104.838 80.847c6.567-3.351 14.664-0.938 18.297 5.55l0.256 0.479c3.351 6.566 0.937 14.663-5.551 18.296l-102.899 57.621V818.69l-0.01 0.518c-0.272 7.378-6.34 13.276-13.784 13.276-0.192 0-0.383-0.004-0.573-0.012-0.19 0.008-0.382 0.012-0.574 0.012-7.445 0-13.513-5.898-13.785-13.276l-0.01-0.518V699.302l-102.899-57.62c-6.488-3.634-8.902-11.73-5.55-18.297l0.255-0.478c3.633-6.489 11.73-8.902 18.297-5.551l0.478 0.255 103.787 58.119 103.788-58.119zM509.474 142c134.865 0 245.728 102.769 258.546 234.266l0.334 3.75 1.466 0.155c99.756 11.353 177.493 95.256 179.153 197.652l0.027 3.345c0 110.613-88.774 200.492-198.964 202.278l-3.345 0.027h-29.138c-16.506 0-29.887-13.38-29.887-29.886 0-16.27 13.001-29.503 29.181-29.877l0.706-0.009h29.138c78.72 0 142.536-63.814 142.536-142.533 0-77.931-62.546-141.255-140.18-142.514l-2.356-0.019h-7.361c-16.344 0-29.61-13.115-29.882-29.37l-0.004-0.709 0.035-5.487c0.003-0.43 0.005-0.86 0.005-1.29 0-109.357-87.766-198.214-196.703-199.98l-3.308-0.027h-18.831c-109.358 0-198.218 87.764-199.984 196.699l-0.027 3.307v6.971c0 16.27-13 29.503-29.18 29.878l-0.706 0.008h-1.436c-78.72 0-142.536 63.814-142.536 142.533 0 77.932 62.546 141.256 140.18 142.514l2.356 0.02h5.271c16.506 0 29.887 13.38 29.887 29.885 0 16.27-13.001 29.503-29.181 29.878l-0.706 0.008h-5.27C147.576 783.473 57 692.898 57 581.168c0-101.674 75.007-185.83 172.706-200.154l1.993-0.278 0.02-0.264c10.724-132.1 120.28-236.259 254.627-238.437l4.296-0.035h18.831z" fill="#1296db" p-id="2737"></path></svg>