<?xml version="1.0" standalone="no"?><!DOCTYPE svg PUBLIC "-//W3C//DTD SVG 1.1//EN" "http://www.w3.org/Graphics/SVG/1.1/DTD/svg11.dtd"><svg t="1690535798462" class="icon" viewBox="0 0 1057 1024" version="1.1" xmlns="http://www.w3.org/2000/svg" p-id="868" xmlns:xlink="http://www.w3.org/1999/xlink" width="206.4453125" height="200"><path d="M316.283871 123.870968C180.851613 189.935484 129.651613 218.83871 123.870968 232.877419c-10.735484 25.6-90.83871 381.522581-90.83871 404.645162 0 16.516129 184.980645 257.651613 254.348387 331.148387l21.470968 22.296774 222.967742-1.651613 223.793548-2.477419 130.47742-161.032258c71.845161-88.36129 132.129032-169.290323 134.606451-179.2 4.954839-18.993548-72.670968-370.787097-90.838709-411.251613-9.909677-21.470968-36.335484-37.16129-196.541936-113.961291C621.006452 68.541935 538.425806 33.032258 523.56129 33.858065 510.348387 33.858065 417.032258 74.322581 316.283871 123.870968z m262.606452 170.116129c24.774194 6.606452 70.193548 19.819355 101.574193 29.729032 31.380645 9.083871 53.677419 18.993548 49.548387 22.296774-4.129032 3.303226-51.2 18.993548-104.051613 33.858065L528.516129 407.122581 431.896774 379.870968c-53.677419-14.864516-102.4-29.729032-108.180645-33.032258-9.909677-4.954839 165.16129-62.76129 197.367742-65.23871 6.606452 0 33.032258 4.954839 57.806452 12.387097zM412.903226 392.258065c118.090323 33.858065 107.354839 18.167742 107.354839 163.509677 0 69.367742-3.303226 129.651613-6.606452 135.432258-4.129032 6.606452-34.683871-5.780645-100.748387-42.941935l-94.967742-52.025807-2.477419-117.264516c-1.651613-92.490323 0-116.43871 8.258064-113.96129 5.780645 2.477419 46.245161 14.864516 89.187097 27.251613z m330.32258 85.88387v114.787097l-98.270967 54.503226C591.277419 677.16129 545.032258 701.935484 541.729032 701.935484c-2.477419 0-4.954839-62.76129-4.954838-138.735484V423.63871l97.445161-28.903226c52.851613-16.516129 99.096774-30.554839 103.225806-30.554839 3.303226-0.825806 5.780645 51.2 5.780645 113.96129z m-82.580645 358.4v61.109678l-30.554838 0.825806c-37.987097 1.651613-52.025806-9.909677-52.025807-43.767742 0-32.206452 17.341935-48.722581 45.419355-43.767742 17.341935 3.303226 20.645161 0.825806 20.645161-14.864516 0-10.735484 4.129032-19.819355 8.258065-19.819354 4.954839 0 8.258065 25.6 8.258064 60.28387z m-204.8-6.606451c14.864516 33.858065 0 65.23871-33.032258 68.541935-19.819355 1.651613-26.425806 6.606452-26.425806 18.993549 0 8.258065-5.780645 15.690323-12.387097 15.690322-9.909677 0-12.387097-12.387097-12.387097-61.935484V809.290323h37.161291c32.206452 0 38.812903 3.303226 47.070967 20.645161z m95.793549-10.735484c5.780645 5.780645 9.909677 21.470968 9.909677 35.509677 0 31.380645-13.212903 45.419355-41.290322 45.419355s-41.290323-14.03871-41.290323-45.419355 13.212903-45.419355 41.290323-45.419354c11.56129 0 25.6 4.129032 31.380645 9.909677z" fill="#1296db" p-id="869"></path><path d="M598.709677 841.496774c-6.606452 21.470968 3.303226 42.116129 20.645162 42.116129 8.258065 0 17.341935-5.780645 19.819355-13.212903 8.258065-20.645161-2.477419-44.593548-19.819355-44.593548-8.258065 0-17.341935 6.606452-20.645162 15.690322zM399.690323 837.367742c-8.258065 21.470968 0 42.116129 17.341935 42.116129 13.212903 0 16.516129-5.780645 16.516129-24.774194 0-27.251613-24.774194-40.464516-33.858064-17.341935zM499.612903 841.496774c-6.606452 21.470968 3.303226 42.116129 20.645162 42.116129 20.645161 0 27.251613-13.212903 21.470967-37.987097-6.606452-23.948387-34.683871-27.251613-42.116129-4.129032z" fill="#1296db" p-id="870"></path></svg>