<?xml version="1.0" standalone="no"?><!DOCTYPE svg PUBLIC "-//W3C//DTD SVG 1.1//EN" "http://www.w3.org/Graphics/SVG/1.1/DTD/svg11.dtd"><svg t="1708589296627" class="icon" viewBox="0 0 1193 1024" version="1.1" xmlns="http://www.w3.org/2000/svg" p-id="8319" xmlns:xlink="http://www.w3.org/1999/xlink" width="233.0078125" height="200"><path d="M601.206528 4.9937c34.003795-5.071423 67.444099 5.945806 98.824743 17.876281 141.844402 54.425503 282.77556 111.143833 424.56167 165.724782 17.876281 7.09222 36.782391 12.377381 52.851613 23.278026 5.596053 4.158178 12.047059 9.579355 11.677875 17.293359 0.077723 39.599848 0.058292 79.219127 0.019431 118.838406 0.155446 9.637647-7.791727 16.496698-14.670209 22.034459-14.339886 10.531461-30.059355 19.294725-46.750361 25.551423-61.206831 28.038558-122.996584 54.87241-184.980645 81.181632-74.983226 32.255028-150.005313 64.432334-224.522201 97.775484-13.523795 6.781328-27.688805 12.202505-41.018292 19.411309-30.72 15.972068-64.782087 29.690171-100.068311 26.386945-33.323719-3.516964-62.430968-21.25723-92.898369-33.673472-135.568273-57.864744-272.457837-112.698292-407.831802-171.068235-11.03666-5.868083-23.433472-8.471803-34.295256-14.709071-12.571689-6.897913-26.017761-13.64038-34.858748-25.337685-3.128349-3.983302-3.536395-9.171309-3.41981-14.048425 0.155446-38.278558 0-76.557116 0.058292-114.835673-0.466338-7.208805 4.313624-13.212903 9.598786-17.468236 9.734801-7.752865 21.25723-12.824288 32.682504-17.545958 143.593169-56.115977 287.108615-112.465123 431.187553-167.376394 40.68797-14.689639 80.831879-32.488197 123.851537-39.288957m-68.940266 61.148539c7.480835 17.06019 18.944972 32.196736 25.454269 49.664972-23.783226 8.005465-47.333283 16.729867-70.961062 25.2211-5.2463 1.884782-10.76463 3.283795-15.330854 6.625883 37.151575 3.730702 74.380873 6.723036 111.551878 10.123415 2.836888 0.330323 6.29556 0.544061 7.655712 3.555826 7.947173 12.824288 15.466869 25.920607 23.336319 38.783757 4.274763 6.800759 7.597419 14.281594 13.232334 20.110816 7.305958-18.595218 14.417609-37.404175 23.239165-55.319317 14.825655-2.176243 29.865047-2.448273 44.690702-4.682809 17.876281-2.545427 36.024592-2.914611 53.745427-6.431575-3.361518-3.536395-8.160911-4.72167-12.552258-6.412144-20.907476-7.558558-41.620645-15.777761-62.528122-23.200303 5.207438-17.312789 13.990133-33.537457 19.93594-50.694801-26.406376 6.470436-51.685769 17.099051-77.800684 24.579886-28.271727-9.482201-55.39704-22.384213-83.668766-31.924706m337.12334 103.818444c-58.875142 22.869981-117.478254 46.536622-176.314536 69.464896 8.39408 5.460038 18.38148 7.675142 27.455636 11.794459 44.049488 17.390512 88.098975 34.839317 132.148463 52.268691 2.584288 1.262998 5.460038 0.602353 8.005465-0.427477 56.504592-22.636812 113.203491-44.846148 169.805237-67.269222 2.312258 0.038861 4.799393-4.061025 1.729336-4.760531-50.636509-20.033093-101.311879-39.969032-151.928956-60.060417-3.439241-1.379583-7.325389-2.681442-10.900645-1.010399m-547.985731 15.544592c-28.310588 2.37055-56.737761 8.044326-82.561214 20.266262-10.667476 5.460038-21.568121 12.105351-27.941405 22.617381-4.760531 7.500266-4.72167 17.565389-0.155446 25.162809 4.799393 8.063757 12.377381 14.009564 20.363416 18.711802 19.43074 11.211537 41.348615 17.137913 63.247059 21.296091 31.749829 4.779962 64.102011 6.29556 96.085009 2.87575 27.067021-2.409412 54.211765-7.791727 78.947097-19.353017 9.19074-4.527362 18.167742-10.026262 24.987932-17.779127 5.809791-6.742467 9.618216-16.438406 6.334421-25.20167-4.216471-12.979734-16.302391-20.985199-27.766527-27.086452-19.586186-9.71537-40.979431-15.350285-62.46983-18.886679-29.457002-4.294194-59.419203-5.596053-89.070512-2.62315m295.366679 127.737685c-59.846679 8.879848-119.596205 18.342619-179.423453 27.319621-3.050626 0.330323-5.984668 1.340721-8.704972 2.720303 58.195066 23.724934 116.156964 48.013359 174.196585 72.126907 5.654345 2.292827 11.211537 4.935408 17.099051 6.645313 4.333055-2.89518 6.451006-8.063757 9.540493-12.144212 20.402277-30.078786 40.843416-60.157571 61.401139-90.139203 4.138748-6.373283 8.996433-12.33852 11.988766-19.411309-28.796357 3.614118-57.398406 8.568956-86.097609 12.88258z" fill="#1296db" p-id="8320"></path><path d="M1179.309905 450.540569c4.449639-3.40038 6.897913-8.588387 9.404478-13.426641 0.971537 37.617913 0.213738 75.255256 0.446907 112.873169 0.427476 8.238634-5.557192 14.689639-11.328121 19.741632-12.396812 10.298292-26.658975 18.167742-41.504061 24.366148-65.90907 30.836584-133.100569 58.797419-199.728577 88.040683-57.437268 24.754763-115.127135 48.946034-172.25351 74.400303-31.011461 13.310057-61.653738 27.436205-91.790816 42.611613-20.693738 9.851385-42.145275 18.711803-64.84038 22.675674-29.612448 4.974269-59.749526-2.934042-86.272485-16.030361-61.848046-27.591651-124.531613-53.181935-187.001442-79.29685-92.704061-38.628311-185.699583-76.518254-277.626414-116.953624-14.359317-5.343454-28.019127-12.629981-40.202201-21.898444-6.83962-5.304592-13.756964-12.649412-12.765996-22.05389 0.349753-37.579051-0.544061-75.158102 0.52463-112.717723 4.624516 12.513397 16.729867 19.897078 27.766527 26.212068 32.177306 17.58482 66.453131 30.817154 100.04888 45.351348 120.703757 51.180569 242.35962 100.068311 362.771917 151.890095 26.931006 11.969336 53.900873 26.620114 83.940797 28.330018 29.534725 2.079089 58.836281-6.276129 85.164934-19.197571 19.586186-7.752865 37.443036-19.17814 56.893206-27.183605 116.215256-52.288121 234.004402-100.962125 350.685997-152.220417 21.237799-9.559924 42.689336-18.65351 63.344212-29.39871 15.680607-7.014497 30.797723-15.4863 44.321518-26.114915z" fill="#1296db" p-id="8321"></path><path d="M1170.954687 651.95962c7.539127-5.032562 14.43704-11.755598 17.681973-20.382846 1.146414 36.918406 0.194307 73.875674 0.563492 110.813511 0.913245 10.881214-7.34482 19.314156-15.408577 25.279392-22.112182 16.166376-47.158406 27.57222-72.010323 38.803188-128.903529 57.728729-259.730702 111.085541-388.265047 169.61093-37.132144 17.118482-73.117875 40.377078-114.874535 43.758027-30.622846 2.856319-60.157571-8.238634-87.127439-21.548691-67.327514-29.826186-135.529412-57.573283-203.400986-86.078178-75.799317-31.633245-151.695787-63.01389-227.067628-95.618672-20.635446-9.249032-41.75666-17.915142-60.507325-30.700569-7.88888-5.790361-17.273928-13.193472-16.652144-24.074687 0.194307-37.598482-0.427476-75.216395 0.330323-112.814877 1.84592 4.235901 3.905579 8.549526 7.36425 11.716736 10.259431 9.423909 22.85055 15.641746 35.461101 21.25723 15.777761 8.510664 32.410474 15.175408 48.810019 22.345351 129.855636 55.377609 260.779962 108.17093 390.557874 163.762277 27.30019 10.997799 53.220797 26.853283 82.872107 30.778292 32.954535 5.421176 66.200531-4.449639 95.793548-18.439772 17.565389-7.033928 33.576319-17.351651 51.005693-24.696471 134.130398-60.429602 270.514763-115.807211 404.567438-176.469981 16.788159-9.074156 34.703302-16.166376 50.306186-27.30019z" fill="#1296db" p-id="8322"></path></svg>