<?xml version="1.0" standalone="no"?><!DOCTYPE svg PUBLIC "-//W3C//DTD SVG 1.1//EN" "http://www.w3.org/Graphics/SVG/1.1/DTD/svg11.dtd"><svg t="1687769912744" class="icon" viewBox="0 0 1104 1024" version="1.1" xmlns="http://www.w3.org/2000/svg" p-id="19534" xmlns:xlink="http://www.w3.org/1999/xlink" width="215.625" height="200"><path d="M1068.781972 987.943662c-7.211268 0-14.422535 0-14.422535-7.211268l-310.084507-151.436619c-14.422535-7.211268-21.633803-21.633803-21.633803-28.845071V209.126761c0-14.422535 7.211268-28.84507 21.633803-28.845071l310.084507-173.070422c14.422535-7.211268 21.633803-7.211268 36.056338 0s14.422535 21.633803 14.422535 28.84507v915.830986c0 14.422535-7.211268 21.633803-14.422535 28.84507-7.211268 7.211268-14.422535 7.211268-21.633803 7.211268z m-274.028169-209.126761l237.971831 115.380282V93.746479l-237.971831 129.802817v555.267605zM37.570704 987.943662c-7.211268 0-14.422535 0-21.633803-7.211268-7.211268-7.211268-14.422535-21.633803-14.422535-28.84507V36.056338c0-14.422535 7.211268-21.633803 14.422535-28.84507 14.422535-7.211268 21.633803-7.211268 36.056338 0l310.084507 173.070422c14.422535 7.211268 21.633803 21.633803 21.633803 28.845071v591.323943c0 14.422535-7.211268 28.84507-21.633803 28.845071l-310.084507 151.436619c-7.211268 7.211268-7.211268 7.211268-14.422535 7.211268z m36.056338-894.197183v800.450704l237.971831-115.380282V230.760563l-237.971831-137.014084zM549.570704 1024c-21.633803 0-36.056338-14.422535-36.056338-36.056338V36.056338c0-21.633803 14.422535-36.056338 36.056338-36.056338s36.056338 14.422535 36.056338 36.056338v951.887324c0 21.633803-14.422535 36.056338-36.056338 36.056338z" fill="#1296db" p-id="19535"></path></svg>