<?xml version="1.0" standalone="no"?><!DOCTYPE svg PUBLIC "-//W3C//DTD SVG 1.1//EN" "http://www.w3.org/Graphics/SVG/1.1/DTD/svg11.dtd"><svg t="1687774973243" class="icon" viewBox="0 0 1057 1024" version="1.1" xmlns="http://www.w3.org/2000/svg" p-id="834" xmlns:xlink="http://www.w3.org/1999/xlink" width="206.4453125" height="200"><path d="M316.283871 123.870968C180.851613 189.935484 129.651613 218.83871 123.870968 232.877419c-10.735484 25.6-90.83871 381.522581-90.83871 404.645162 0 16.516129 184.980645 257.651613 254.348387 331.148387l21.470968 22.296774 222.967742-1.651613 223.793548-2.477419 130.47742-161.032258c71.845161-88.36129 132.129032-169.290323 134.606451-179.2 4.954839-18.993548-72.670968-370.787097-90.838709-411.251613-9.909677-21.470968-36.335484-37.16129-196.541936-113.961291C621.006452 68.541935 538.425806 33.032258 523.56129 33.858065 510.348387 33.858065 417.032258 74.322581 316.283871 123.870968z m334.451613 150.296774L768 326.193548V421.16129c0 142.03871-24.774194 218.83871-95.793548 297.290323-30.554839 33.858065-114.787097 82.580645-142.864517 82.580645-28.903226 0-89.187097-33.032258-132.954838-71.845161-27.251613-24.774194-51.2-57.806452-71.845162-99.922581-31.380645-62.76129-31.380645-62.76129-33.858064-182.503226l-3.303226-120.567742 114.787097-51.2c62.76129-28.077419 118.090323-51.2 122.219355-51.2 4.954839-0.825806 61.109677 22.296774 126.348387 50.374194z" fill="#1296db" p-id="835"></path><path d="M478.141935 362.529032c-26.425806 27.251613-29.729032 47.896774-11.56129 82.580645 13.212903 26.425806 27.251613 33.858065 64.412903 33.858065 66.890323-0.825806 94.141935-82.580645 41.290323-123.870968-30.554839-23.948387-65.23871-21.470968-94.141936 7.432258zM478.967742 527.690323c-67.716129 22.296774-90.83871 46.245161-90.83871 94.141935 0 33.858065 20.645161 62.76129 69.367742 95.793548 53.677419 37.16129 71.845161 38.812903 120.567742 12.387097 102.4-56.154839 120.567742-139.56129 40.464516-184.154838-35.509677-19.819355-106.529032-28.903226-139.56129-18.167742z" fill="#1296db" p-id="836"></path></svg>