<?xml version="1.0" standalone="no"?><!DOCTYPE svg PUBLIC "-//W3C//DTD SVG 1.1//EN" "http://www.w3.org/Graphics/SVG/1.1/DTD/svg11.dtd"><svg t="1706165649229" class="icon" viewBox="0 0 1057 1024" version="1.1" xmlns="http://www.w3.org/2000/svg" p-id="858" xmlns:xlink="http://www.w3.org/1999/xlink" width="206.4453125" height="200"><path d="M323.716129 122.219355c-103.225806 49.548387-188.283871 94.967742-193.23871 104.051613-14.864516 26.425806-99.096774 403.819355-94.141935 421.16129 3.303226 9.909677 63.587097 90.012903 135.432258 178.374194l129.651613 161.032258 222.967742 2.477419 223.793548 1.651613 25.6-26.425807c14.03871-14.864516 75.974194-90.012903 137.909678-167.638709C990.967742 697.806452 1024 650.735484 1024 635.870968c0-25.6-79.277419-374.916129-90.83871-402.993549-6.606452-14.03871-56.154839-42.116129-194.890322-109.832258C635.870968 73.496774 541.729032 33.032258 530.167742 33.032258c-12.387097 0.825806-104.877419 40.464516-206.451613 89.187097zM512 231.225806c0 14.03871-5.780645 16.516129-33.032258 16.516129s-33.032258 2.477419-33.032258 16.51613c0 10.735484-5.780645 16.516129-16.516129 16.516129-14.03871 0-16.516129-5.780645-16.516129-33.032259v-33.032258h49.548387c43.767742 0 49.548387 1.651613 49.548387 16.516129z m181.677419 0c0 14.864516-5.780645 16.516129-61.935484 16.516129s-61.935484-1.651613-61.935483-16.516129 5.780645-16.516129 61.935483-16.516129 61.935484 1.651613 61.935484 16.516129z m132.129033 28.903226c0 39.63871-1.651613 45.419355-16.516129 45.419355-13.212903 0-16.516129-5.780645-16.516129-28.903226 0-25.6-2.477419-28.903226-20.645162-28.903226-14.864516 0-20.645161-4.129032-20.645161-16.516129 0-14.03871 5.780645-16.516129 37.16129-16.516129h37.161291v45.419355z m-414.554839 55.329033c2.477419 12.387097-3.303226 14.864516-26.425807 14.864516-26.425806 0-29.729032 2.477419-29.729032 20.645161 0 14.864516-4.129032 20.645161-16.516129 20.645161-14.03871 0-16.516129-5.780645-16.516129-31.380645 0-17.341935 2.477419-34.683871 5.780645-37.987097 3.303226-3.303226 23.122581-4.954839 43.767742-3.303226 27.251613 1.651613 37.987097 5.780645 39.63871 16.51613zM594.580645 313.806452c0 14.864516-5.780645 16.516129-66.064516 16.516129s-66.064516-1.651613-66.064516-16.516129 5.780645-16.516129 66.064516-16.516129 66.064516 1.651613 66.064516 16.516129z m140.387097 20.645161c0 31.380645-2.477419 37.16129-16.516129 37.16129-12.387097 0-16.516129-5.780645-16.516129-20.645161 0-17.341935-4.129032-20.645161-24.774194-20.645161-18.993548 0-24.774194-3.303226-24.774193-16.516129 0-14.03871 5.780645-16.516129 41.290322-16.516129h41.290323v37.16129z m90.83871 90.83871c0 56.154839-1.651613 61.935484-16.516129 61.935483s-16.516129-5.780645-16.516129-61.935483 1.651613-61.935484 16.516129-61.935484 16.516129 5.780645 16.516129 61.935484z m-178.374194-32.206452c2.477419 7.432258 4.954839 47.896774 4.954839 90.83871 0 71.845161 0.825806 77.625806 16.516129 77.625806 12.387097 0 16.516129 5.780645 16.516129 20.645161s-4.129032 20.645161-16.516129 20.645162c-14.03871 0-16.516129 5.780645-16.516129 32.206451 0 17.341935-4.954839 36.335484-11.561291 41.290323-7.432258 6.606452-70.193548 9.083871-208.103225 7.432258l-197.367742-2.477419-2.47742-151.122581L231.225806 379.870968h205.625807c180.025806 0 206.451613 1.651613 210.580645 13.212903zM734.967742 453.367742c0 16.516129 4.954839 24.774194 16.516129 28.077419 9.083871 2.477419 16.516129 10.735484 16.516129 18.167742 0 7.432258-7.432258 15.690323-16.516129 18.167742-10.735484 2.477419-16.516129 11.56129-16.516129 23.948387 0 14.03871-4.954839 19.819355-16.516129 19.819355-14.864516 0-16.516129-5.780645-16.516129-66.064516s1.651613-66.064516 16.516129-66.064516c12.387097 0 16.516129 5.780645 16.516129 23.948387zM528.516129 796.077419c0 6.606452 8.258065 14.03871 18.993548 15.690323l18.167742 3.303226-18.167742 6.606451c-26.425806 8.258065-28.077419 61.935484-2.477419 61.935484 9.083871 0 16.516129 4.129032 16.516129 9.083871 0 4.954839-9.909677 7.432258-22.296774 5.780645-20.645161-2.477419-23.122581-6.606452-25.6-35.509677-1.651613-18.167742-7.432258-36.335484-12.387097-39.63871-7.432258-4.954839-7.432258-8.258065 0.825807-11.56129 4.954839-1.651613 9.909677-9.083871 9.909677-15.690323 0-6.606452 4.129032-11.56129 8.258065-11.56129 4.954839 0 8.258065 4.954839 8.258064 11.56129zM487.225806 817.548387c0 4.129032-10.735484 8.258065-24.774193 8.258065-31.380645 0-32.206452 13.212903-0.825807 20.645161 27.251613 5.780645 38.812903 25.6 24.774194 42.116129-12.387097 14.864516-65.23871 15.690323-65.23871 0.825806 0-7.432258 8.258065-9.909677 24.774194-7.432258 14.03871 1.651613 24.774194 0 24.774193-4.954838 0-4.129032-10.735484-12.387097-24.774193-17.341936-23.122581-7.432258-33.032258-30.554839-18.993549-44.593548 8.258065-9.083871 60.283871-6.606452 60.283871 2.477419z m148.645162 0c0 4.129032-10.735484 8.258065-24.774194 8.258065-31.380645 0-32.206452 13.212903-0.825806 20.645161 27.251613 5.780645 38.812903 25.6 24.774193 42.116129-12.387097 14.864516-65.23871 15.690323-65.238709 0.825806 0-7.432258 8.258065-9.909677 24.774193-7.432258 14.03871 1.651613 24.774194 0 24.774194-4.954838 0-4.129032-10.735484-12.387097-24.774194-17.341936-23.122581-7.432258-33.032258-30.554839-18.993548-44.593548 8.258065-9.083871 60.283871-6.606452 60.283871 2.477419z" fill="#1296db" p-id="859"></path><path d="M336.103226 423.63871C271.690323 442.632258 264.258065 454.193548 264.258065 533.470968c0 63.587097 1.651613 69.367742 21.470967 85.058064 47.896774 37.16129 222.967742 44.593548 290.683871 11.561291l30.554839-14.864517v-165.16129l-31.380645-15.690322c-41.290323-19.819355-183.329032-26.425806-239.483871-10.735484zM559.896774 454.193548c14.03871 5.780645 26.425806 13.212903 26.425807 16.516129 0 12.387097-53.677419 26.425806-119.741936 30.554839-90.83871 6.606452-187.458065-14.864516-165.987097-36.335484 25.6-25.6 199.019355-33.032258 259.303226-10.735484z m-143.690322 71.845162c56.980645 2.477419 97.445161 0 127.174193-8.258065l42.941936-11.56129v47.896774c0 47.070968 0 47.070968-30.554839 58.632258-46.245161 15.690323-196.541935 14.03871-235.354839-3.303226-29.729032-13.212903-31.380645-15.690323-31.380645-54.503226 0-47.070968 4.129032-53.677419 27.251613-41.290322 9.083871 4.129032 53.677419 9.909677 99.922581 12.387097z" fill="#1296db" p-id="860"></path></svg>