<?xml version="1.0" standalone="no"?><!DOCTYPE svg PUBLIC "-//W3C//DTD SVG 1.1//EN" "http://www.w3.org/Graphics/SVG/1.1/DTD/svg11.dtd"><svg t="1689145057663" class="icon" viewBox="0 0 1057 1024" version="1.1" xmlns="http://www.w3.org/2000/svg" p-id="850" xmlns:xlink="http://www.w3.org/1999/xlink" width="206.4453125" height="200"><path d="M316.283871 123.870968C180.851613 189.935484 129.651613 218.83871 123.870968 232.877419c-10.735484 25.6-90.83871 381.522581-90.83871 404.645162 0 16.516129 184.980645 257.651613 254.348387 331.148387l21.470968 22.296774 222.967742-1.651613 223.793548-2.477419 130.47742-161.032258c71.845161-88.36129 132.129032-169.290323 134.606451-179.2 4.954839-18.993548-72.670968-370.787097-90.838709-411.251613-9.909677-21.470968-36.335484-37.16129-196.541936-113.961291C621.006452 68.541935 538.425806 33.032258 523.56129 33.858065 510.348387 33.858065 417.032258 74.322581 316.283871 123.870968z m350.967742 170.941935l2.477419 60.283871H545.032258v98.270968l113.96129 2.477419 113.135484 2.47742 2.47742 63.587096 2.477419 64.412904h73.496774v123.870967H668.077419l2.47742-60.283871 2.477419-59.458064 35.509677-2.477419 34.683871-2.47742V487.225806H545.032258v98.270968l35.509677 2.47742 34.683871 2.477419 2.47742 59.458064 2.477419 60.283871H437.677419V586.322581h74.322581V487.225806H313.806452v99.096775h66.064516v123.870967H206.451613V586.322581h73.496774l2.477419-64.412904 2.47742-63.587096 113.96129-2.47742 113.135484-2.477419V355.096774H388.129032V231.225806l138.735484 1.651613 137.909678 2.47742 2.477419 59.458064zM470.709677 817.548387c0 4.129032-10.735484 8.258065-24.774193 8.258065-31.380645 0-32.206452 13.212903-0.825807 20.645161 27.251613 5.780645 38.812903 25.6 24.774194 42.116129-12.387097 14.864516-65.23871 15.690323-65.23871 0.825806 0-7.432258 8.258065-9.909677 24.774194-7.432258 14.03871 1.651613 24.774194 0 24.774193-4.954838 0-4.129032-10.735484-12.387097-24.774193-17.341936-23.122581-7.432258-33.032258-30.554839-18.993549-44.593548 8.258065-9.083871 60.283871-6.606452 60.283871 2.477419z m42.116129 20.645161c13.212903 35.509677 20.645161 36.335484 28.07742 4.129033 5.780645-24.774194 17.341935-38.812903 26.425806-29.729033 2.477419 2.477419-2.477419 23.122581-10.735484 46.245162-19.819355 56.154839-37.16129 54.503226-58.632258-4.129033-13.212903-34.683871-14.864516-45.419355-5.780645-45.419354 5.780645 0 14.864516 13.212903 20.645161 28.903225zM660.645161 817.548387c0 4.129032-10.735484 8.258065-23.948387 8.258065-16.516129 0-26.425806 4.954839-29.729032 15.690322-7.432258 25.6 4.129032 42.116129 29.729032 42.116129 13.212903 0 23.948387 3.303226 23.948387 8.258065 0 11.56129-52.851613 9.909677-64.412903-1.651613-13.212903-13.212903-13.212903-57.806452 0-71.019355 11.56129-11.56129 64.412903-13.212903 64.412903-1.651613z" fill="#1296db" p-id="851"></path></svg>