<?xml version="1.0" standalone="no"?><!DOCTYPE svg PUBLIC "-//W3C//DTD SVG 1.1//EN" "http://www.w3.org/Graphics/SVG/1.1/DTD/svg11.dtd"><svg t="1708589222008" class="icon" viewBox="0 0 1024 1024" version="1.1" xmlns="http://www.w3.org/2000/svg" p-id="4331" xmlns:xlink="http://www.w3.org/1999/xlink" width="200" height="200"><path d="M512 953.792A441.792 441.792 0 1 0 512 70.208a441.792 441.792 0 0 0 0 883.584z m0-65.408A376.32 376.32 0 1 1 512 135.616a376.32 376.32 0 0 1 0 752.768z m102.208-242.176a32 32 0 1 1 0 64h-192a32 32 0 1 1 0-64h192zM358.592 375.68a51.136 51.136 0 1 1 0 102.272 51.136 51.136 0 0 1 0-102.272z m306.816 0a51.136 51.136 0 1 1 0 102.272 51.136 51.136 0 0 1 0-102.272z" fill="#1296db" p-id="4332"></path></svg>